<svg id="Layer_1" data-name="Layer 1" xmlns="http://www.w3.org/2000/svg" viewBox="0 0 800 300"><defs><style>.cls-1{fill:none;stroke:#1f95d9;stroke-miterlimit:10;stroke-width:12px;opacity:0.25;}.cls-2{fill:#1f95d9;}.cls-3{fill:#323180;}.cls-4{fill:#52bae8;}</style></defs><path class="cls-1" d="M538.09,186.24a121.21,121.21,0,1,0,0-72.48"/><path class="cls-2" d="M483.9,171.65c6.82,7.11,17.63,11.25,27.26,11.25,12,0,18.67-5.18,18.67-12.74,0-8-6.07-11.7-19.85-11.7-4.15,0-10.82,0-12.3.15V140.23c1.78.15,8.59.15,12.3.15,11,0,18.22-3.55,18.22-11,0-7.85-8-11.86-18.37-11.86a36.07,36.07,0,0,0-25.19,10.38l-10.37-13c8-9,20.45-15.71,37.78-15.71,23.12,0,37.34,10.37,37.34,26.82,0,12.45-10.67,20.6-21.63,22.52,10.07,1,23.11,8.89,23.11,23.71,0,17-15.26,29-39,29-18.22,0-31.7-7-39-15.86Z"/><path class="cls-2" d="M615.47,99.19c12,0,22.08,4.15,29.19,10.23l-9.48,15.85c-5.34-5-11-7.85-19.71-7.85-15,0-24.74,12.89-24.74,28.59a9.72,9.72,0,0,0,.14,2.08c4.6-6.67,14.52-12.6,25.34-12.6,17.78,0,33.63,10.82,33.63,31.86,0,19.26-15.26,33.93-37.78,33.93-30.08,0-42.67-23.12-42.67-51C569.39,120.38,586.28,99.19,615.47,99.19ZM610.14,153a25.36,25.36,0,0,0-19.27,9.48c.89,9.48,6.23,20.44,20.16,20.44,11.4,0,17.48-7.7,17.48-14.66C628.51,157.57,619.77,153,610.14,153Z"/><path class="cls-2" d="M707.77,99.19c28.16,0,40.9,25.49,40.9,51s-12.74,51.12-40.9,51.12-40.89-25.63-40.89-51.12S679.48,99.19,707.77,99.19Zm0,18.67c-14.22,0-19.55,14.08-19.55,32.3s5.33,32.45,19.55,32.45,19.41-14.22,19.41-32.45S721.85,117.86,707.77,117.86Z"/><path class="cls-3" d="M125.13,106.28h18.62v71.05h37v16.39H125.13Z"/><path class="cls-3" d="M198.46,106.28h61.88v16H217.08v19h42.34v16H217.08V177.6h43.26v16.12H198.46Z"/><path class="cls-3" d="M298.28,135v58.73H279.66V106.28H298.8l40.51,56.63V106.28h18.62v87.44H340Z"/><path class="cls-3" d="M375.83,106.28h34.48c27.4,0,46.41,17.43,46.41,43.79s-19,43.65-46.41,43.65H375.83Zm34.48,71.05c17.31,0,27.4-12.45,27.4-27.26,0-15.48-9.44-27.41-27.4-27.41H394.45v54.67Z"/><path class="cls-3" d="M91,148.62c8.26-1.7,15.08-9,15.08-20.06,0-11.66-8.52-22.28-25.18-22.28H25l9.91,11.32v76.12H82.37c16.65,0,25.43-10.49,25.43-23.59C107.8,159.11,100.33,150.07,91,148.62Zm-37.5-26.48H76.86c6.29,0,10.23,4.2,10.23,9.57,0,5.64-3.94,9.7-10.23,9.7H53.52Zm24,55.72h-24V157.28h24c7.34,0,11.27,4.72,11.27,10.22C88.79,173.8,84.59,177.86,77.52,177.86Z"/><polygon class="cls-4" points="52.96 106.28 16.5 106.28 52.96 141.41 52.96 106.28"/><polygon class="cls-2" points="53.52 106.28 17.06 106.28 53.52 141.41 53.52 106.28"/></svg>